<svg xmlns="http://www.w3.org/2000/svg" xmlns:xlink="http://www.w3.org/1999/xlink" version="1.1" x="0px" y="0px" viewBox="0 0 100 125" enable-background="new 0 0 100 100" xml:space="preserve"><path d="M90,50c0-22.092-17.908-40-40-40S10,27.908,10,50s17.908,40,40,40S90,72.092,90,50z M38.338,73.768  c-0.832-0.832-1.248-1.922-1.248-3.011s0.416-2.18,1.248-3.011l17.744-17.744L38.338,32.257c-1.664-1.664-1.664-4.359,0-6.023  c1.664-1.664,4.359-1.664,6.023,0l20.756,20.756c1.664,1.664,1.664,4.359,0,6.023L44.361,73.768  C42.697,75.432,40.002,75.432,38.338,73.768z"/></svg>