<?xml version="1.0" encoding="UTF-8" standalone="no"?>
<!-- Created with Inkscape (http://www.inkscape.org/) -->

<svg
   version="1.1"
   id="svg2"
   width="822.52"
   height="213.70667"
   viewBox="200 300 802.52 193.70667"
   sodipodi:docname="NASA.eps"
   xmlns:inkscape="http://www.inkscape.org/namespaces/inkscape"
   xmlns:sodipodi="http://sodipodi.sourceforge.net/DTD/sodipodi-0.dtd"
   xmlns="http://www.w3.org/2000/svg"
   xmlns:svg="http://www.w3.org/2000/svg">
  <defs
     id="defs6" />
  <sodipodi:namedview
     id="namedview4"
     borderopacity="0.25"
 />
  <g
     id="g8"
     inkscape:groupmode="layer"
     inkscape:label="ink_ext_XXXXXX"
     transform="matrix(1.3333333,0,0,-1.3333333,0,793.70667)">
    <g
       id="g10"
       transform="scale(0.1)">
      <path
         d="m 5761.4,3514.03 c 23.2,76.83 66.52,134.81 129.94,173.84 63.4,39.05 137.84,58.6 223.29,58.6 84.17,0 157.05,-19.55 218.68,-58.6 61.62,-39.03 104.01,-95.74 127.19,-170.2 l 375.14,-1196.98 h -314.79 l -362.29,1074.56 c -7.39,23.19 -21.44,34.79 -42.13,34.79 -19.55,0 -32.95,-11.6 -40.31,-34.79 L 5721.09,2320.69 h -331.2 z M 1883.48,3357.18 c 0,18.18 4.55,34.89 13.69,50.06 9.1,15.18 21.61,23.99 37.44,26.42 18.31,3.65 34.46,-0.27 48.5,-11.85 13.98,-11.6 24.04,-27.06 30.11,-46.51 l 16.48,-52.9 230.27,-808.17 c 23.16,-79.13 72.47,-138.68 148.05,-178.82 64.56,-34.03 144.98,-51.06 241.27,-51.06 109.61,0 192.47,31.69 248.5,95.08 56.05,63.45 84.11,153.71 84.11,270.83 v 1064.9 H 2665.49 V 2639.18 c 0,-25.57 -14.05,-40.78 -42.12,-45.69 -15.93,-3.64 -30.24,0.27 -43.04,11.87 -12.83,11.55 -21.64,25.8 -26.53,42.84 l -31.15,96.7 -201.35,709.69 c -25.68,89.96 -73.88,161.11 -144.69,213.4 -70.81,52.27 -153.15,78.48 -247.09,78.48 -113.56,0 -197.77,-21.3 -252.68,-63.87 -70.81,-55.98 -106.16,-153.34 -106.16,-292 V 2322.97 h 312.8 v 961.41 z M 4048.01,2320.69 3709.46,3375.3 c -3.7,13.36 -9.82,24.61 -18.35,33.76 -8.54,9.11 -18.93,13.69 -31.09,13.69 -26.83,0 -45.13,-16.47 -54.89,-49.31 l -334.86,-1052.75 -334.92,2.28 367.82,1184.14 c 24.38,76.72 69.85,135.82 136.34,177.25 66.5,41.37 141.22,62.11 224.19,62.11 152.49,0 262.3,-67.51 329.41,-202.49 l 12.79,-25.57 276.37,-879.41 10.95,-20.05 h 728.39 c 35.31,0 64.9,13.29 88.73,39.96 23.76,26.61 35.7,58.58 35.7,95.79 0,30.98 -8.84,57.3 -26.51,79 -17.64,21.72 -39.85,32.59 -66.64,32.59 h -45.63 -408.94 c -107.12,0 -196.6,45.72 -268.45,137.24 -66.94,85.41 -100.39,186.05 -100.39,302 0,120.81 33.49,218.39 100.66,292.84 73.17,81.73 178.14,122.64 314.85,122.64 h 752.25 v -298.26 h -738.07 c -34.1,0 -61.55,-14.24 -82.23,-42.72 -20.71,-28.53 -31.04,-61.54 -31.04,-99.11 0,-32.74 9.72,-60.93 29.22,-84.57 19.44,-23.64 44.36,-35.46 74.85,-35.46 h 18.26 376.15 c 116.83,0 215.12,-36.72 294.85,-110.09 79.73,-73.44 119.59,-171.25 119.59,-293.47 0,-117.4 -34.36,-218.35 -103.02,-302.72 -72.43,-89.29 -162.4,-133.92 -270.17,-133.92 h -53.06 -666.15 -318.41"
         style="fill:#DD002A;fill-opacity:1;fill-rule:evenodd;stroke:none"
         id="path14" />
    </g>
  </g>
</svg>
